<svg data-v-423bf9ae="" xmlns="http://www.w3.org/2000/svg" viewBox="0 0 404 90" class="iconLeft"><!----><!----><!----><g data-v-423bf9ae="" id="21e550ac-84df-4f86-a110-f9c780a47828" fill="#000000" transform="matrix(3.7878789794456083,0,0,3.7878789794456083,107.83405325935922,11.060606482709844)"><path d="M5.25 4.09L5.25 4.09L5.25 4.09Q5.07 4.09 4.82 4.16L4.82 4.16L4.82 4.16Q4.57 4.24 4.32 4.45L4.32 4.45L4.32 4.45Q4.06 4.66 3.81 5.03L3.81 5.03L3.81 5.03Q3.57 5.41 3.37 6.01L3.37 6.01L3.37 6.01Q3.18 6.60 3.06 7.46L3.06 7.46L3.06 7.46Q2.94 8.31 2.94 9.47L2.94 9.47L2.94 9.47Q2.94 10.58 3.06 11.40L3.06 11.40L3.06 11.40Q3.18 12.21 3.38 12.78L3.38 12.78L3.38 12.78Q3.58 13.35 3.84 13.71L3.84 13.71L3.84 13.71Q4.10 14.08 4.39 14.28L4.39 14.28L4.39 14.28Q4.68 14.48 4.96 14.55L4.96 14.55L4.96 14.55Q5.25 14.63 5.50 14.63L5.50 14.63L5.50 14.63Q5.77 14.63 6.04 14.56L6.04 14.56L6.04 14.56Q6.32 14.49 6.58 14.36L6.58 14.36L6.58 14.36Q6.84 14.23 7.09 14.05L7.09 14.05L7.09 14.05Q7.33 13.86 7.53 13.62L7.53 13.62L7.84 13.93L7.84 13.93Q7.64 14.18 7.35 14.45L7.35 14.45L7.35 14.45Q7.06 14.71 6.68 14.93L6.68 14.93L6.68 14.93Q6.30 15.14 5.83 15.28L5.83 15.28L5.83 15.28Q5.36 15.42 4.79 15.42L4.79 15.42L4.79 15.42Q3.89 15.42 3.12 15.07L3.12 15.07L3.12 15.07Q2.35 14.73 1.78 14.01L1.78 14.01L1.78 14.01Q1.21 13.29 0.89 12.16L0.89 12.16L0.89 12.16Q0.56 11.03 0.56 9.46L0.56 9.46L0.56 9.46Q0.56 7.98 0.90 6.87L0.90 6.87L0.90 6.87Q1.24 5.76 1.83 5.01L1.83 5.01L1.83 5.01Q2.42 4.26 3.21 3.88L3.21 3.88L3.21 3.88Q4.01 3.50 4.90 3.50L4.90 3.50L4.90 3.50Q5.50 3.50 5.98 3.61L5.98 3.61L5.98 3.61Q6.47 3.73 6.83 3.94L6.83 3.94L6.83 3.94Q7.18 4.16 7.38 4.47L7.38 4.47L7.38 4.47Q7.57 4.79 7.57 5.20L7.57 5.20L7.57 5.20Q7.57 5.38 7.51 5.58L7.51 5.58L7.51 5.58Q7.45 5.78 7.32 5.95L7.32 5.95L7.32 5.95Q7.20 6.12 7.01 6.22L7.01 6.22L7.01 6.22Q6.83 6.33 6.58 6.33L6.58 6.33L6.58 6.33Q6.36 6.33 6.24 6.23L6.24 6.23L6.24 6.23Q6.13 6.14 6.07 5.98L6.07 5.98L6.07 5.98Q6.01 5.82 5.99 5.62L5.99 5.62L5.99 5.62Q5.97 5.42 5.97 5.21L5.97 5.21L5.97 5.21Q5.96 5.00 5.94 4.80L5.94 4.80L5.94 4.80Q5.91 4.59 5.84 4.44L5.84 4.44L5.84 4.44Q5.77 4.28 5.63 4.18L5.63 4.18L5.63 4.18Q5.50 4.09 5.25 4.09ZM10.66 8.07L10.66 8.07L10.66 8.07Q10.92 7.67 11.22 7.35L11.22 7.35L11.22 7.35Q11.34 7.21 11.48 7.08L11.48 7.08L11.48 7.08Q11.63 6.95 11.78 6.85L11.78 6.85L11.78 6.85Q11.94 6.75 12.10 6.69L12.10 6.69L12.10 6.69Q12.26 6.62 12.43 6.62L12.43 6.62L12.43 6.62Q12.78 6.62 12.97 6.83L12.97 6.83L12.97 6.83Q13.17 7.04 13.17 7.42L13.17 7.42L13.17 7.42Q13.17 7.65 13.14 7.86L13.14 7.86L13.14 7.86Q13.10 8.08 12.99 8.39L12.99 8.39L12.80 8.39L12.80 8.39Q12.76 8.18 12.61 8.04L12.61 8.04L12.61 8.04Q12.46 7.90 12.17 7.90L12.17 7.90L12.17 7.90Q11.96 7.90 11.75 7.97L11.75 7.97L11.75 7.97Q11.55 8.05 11.35 8.17L11.35 8.17L11.35 8.17Q11.16 8.29 10.98 8.42L10.98 8.42L10.98 8.42Q10.81 8.56 10.66 8.68L10.66 8.68L10.66 13.12L10.66 13.12Q10.66 13.21 10.64 13.33L10.64 13.33L10.64 13.33Q10.61 13.45 10.50 13.56L10.50 13.56L10.50 13.56Q10.40 13.67 10.19 13.75L10.19 13.75L10.19 13.75Q9.98 13.83 9.62 13.83L9.62 13.83L9.62 13.83Q9.26 13.83 9.05 13.74L9.05 13.74L9.05 13.74Q8.84 13.66 8.73 13.54L8.73 13.54L8.73 13.54Q8.62 13.43 8.59 13.30L8.59 13.30L8.59 13.30Q8.57 13.18 8.57 13.10L8.57 13.10L8.57 7.83L8.57 7.83Q8.57 7.63 8.47 7.48L8.47 7.48L8.47 7.48Q8.38 7.33 8.16 7.33L8.16 7.33L8.16 7.33Q8.05 7.33 7.96 7.38L7.96 7.38L7.96 7.38Q7.88 7.42 7.79 7.49L7.79 7.49L7.64 7.32L7.64 7.32Q7.80 7.19 7.99 7.06L7.99 7.06L7.99 7.06Q8.19 6.94 8.42 6.84L8.42 6.84L8.42 6.84Q8.64 6.75 8.90 6.69L8.90 6.69L8.90 6.69Q9.16 6.62 9.45 6.62L9.45 6.62L9.45 6.62Q9.74 6.62 9.95 6.70L9.95 6.70L9.95 6.70Q10.16 6.78 10.29 6.91L10.29 6.91L10.29 6.91Q10.42 7.03 10.50 7.19L10.50 7.19L10.50 7.19Q10.58 7.35 10.61 7.51L10.61 7.51L10.61 7.51Q10.65 7.67 10.66 7.82L10.66 7.82L10.66 7.82Q10.66 7.96 10.66 8.07ZM16.98 11.85L16.98 10.18L16.98 10.18Q16.98 10.01 16.87 9.92L16.87 9.92L16.87 9.92Q16.76 9.83 16.59 9.83L16.59 9.83L16.59 9.83Q16.35 9.83 16.14 9.94L16.14 9.94L16.14 9.94Q15.92 10.05 15.76 10.26L15.76 10.26L15.76 10.26Q15.59 10.47 15.50 10.78L15.50 10.78L15.50 10.78Q15.40 11.09 15.40 11.50L15.40 11.50L15.40 11.50Q15.40 11.90 15.46 12.16L15.46 12.16L15.46 12.16Q15.52 12.42 15.62 12.57L15.62 12.57L15.62 12.57Q15.72 12.73 15.85 12.79L15.85 12.79L15.85 12.79Q15.98 12.85 16.12 12.85L16.12 12.85L16.12 12.85Q16.30 12.85 16.45 12.76L16.45 12.76L16.45 12.76Q16.61 12.67 16.73 12.52L16.73 12.52L16.73 12.52Q16.84 12.38 16.91 12.20L16.91 12.20L16.91 12.20Q16.98 12.02 16.98 11.85L16.98 11.85ZM15.89 7.18L15.89 7.18L15.89 7.18Q15.66 7.18 15.46 7.24L15.46 7.24L15.46 7.24Q15.26 7.29 15.12 7.38L15.12 7.38L15.12 7.38Q14.98 7.46 14.90 7.56L14.90 7.56L14.90 7.56Q14.81 7.66 14.81 7.75L14.81 7.75L14.81 7.75Q14.81 7.85 14.92 7.89L14.92 7.89L14.92 7.89Q15.03 7.94 15.16 7.99L15.16 7.99L15.16 7.99Q15.29 8.05 15.39 8.16L15.39 8.16L15.39 8.16Q15.50 8.26 15.50 8.48L15.50 8.48L15.50 8.48Q15.50 8.63 15.44 8.75L15.44 8.75L15.44 8.75Q15.38 8.87 15.28 8.96L15.28 8.96L15.28 8.96Q15.18 9.05 15.05 9.10L15.05 9.10L15.05 9.10Q14.92 9.15 14.77 9.15L14.77 9.15L14.77 9.15Q14.39 9.15 14.15 8.89L14.15 8.89L14.15 8.89Q13.92 8.63 13.92 8.20L13.92 8.20L13.92 8.20Q13.92 7.79 14.14 7.49L14.14 7.49L14.14 7.49Q14.36 7.19 14.71 7L14.71 7L14.71 7Q15.06 6.81 15.50 6.72L15.50 6.72L15.50 6.72Q15.95 6.62 16.39 6.62L16.39 6.62L16.39 6.62Q16.93 6.62 17.41 6.74L17.41 6.74L17.41 6.74Q17.90 6.86 18.27 7.11L18.27 7.11L18.27 7.11Q18.64 7.36 18.86 7.75L18.86 7.75L18.86 7.75Q19.09 8.14 19.09 8.70L19.09 8.70L19.09 12.56L19.09 12.56Q19.09 12.62 19.09 12.69L19.09 12.69L19.09 12.69Q19.10 12.77 19.13 12.83L19.13 12.83L19.13 12.83Q19.15 12.89 19.21 12.93L19.21 12.93L19.21 12.93Q19.26 12.97 19.37 12.97L19.37 12.97L19.37 12.97Q19.49 12.97 19.60 12.88L19.60 12.88L19.60 12.88Q19.70 12.79 19.78 12.69L19.78 12.69L19.95 12.84L19.95 12.84Q19.85 12.98 19.71 13.15L19.71 13.15L19.71 13.15Q19.56 13.32 19.36 13.47L19.36 13.47L19.36 13.47Q19.15 13.62 18.88 13.73L18.88 13.73L18.88 13.73Q18.61 13.83 18.26 13.83L18.26 13.83L18.26 13.83Q17.83 13.83 17.49 13.57L17.49 13.57L17.49 13.57Q17.16 13.32 17.06 12.78L17.06 12.78L17.06 12.78Q16.84 13.08 16.60 13.28L16.60 13.28L16.60 13.28Q16.37 13.47 16.12 13.60L16.12 13.60L16.12 13.60Q15.87 13.72 15.62 13.77L15.62 13.77L15.62 13.77Q15.37 13.83 15.12 13.83L15.12 13.83L15.12 13.83Q14.79 13.83 14.49 13.73L14.49 13.73L14.49 13.73Q14.18 13.62 13.94 13.40L13.94 13.40L13.94 13.40Q13.69 13.18 13.55 12.82L13.55 12.82L13.55 12.82Q13.40 12.47 13.40 11.96L13.40 11.96L13.40 11.96Q13.40 11.33 13.64 10.94L13.64 10.94L13.64 10.94Q13.89 10.54 14.29 10.27L14.29 10.27L14.29 10.27Q14.69 10.00 15.20 9.81L15.20 9.81L15.20 9.81Q15.71 9.62 16.24 9.41L16.24 9.41L16.24 9.41Q16.64 9.25 16.82 8.94L16.82 8.94L16.82 8.94Q17.00 8.63 17.00 8.30L17.00 8.30L17.00 8.30Q17.00 7.79 16.70 7.49L16.70 7.49L16.70 7.49Q16.41 7.18 15.89 7.18ZM24.25 3.55L24.25 3.55L24.25 3.55Q24.06 3.55 23.88 3.64L23.88 3.64L23.88 3.64Q23.71 3.72 23.59 3.90L23.59 3.90L23.59 3.90Q23.46 4.08 23.39 4.36L23.39 4.36L23.39 4.36Q23.31 4.64 23.31 5.04L23.31 5.04L23.31 6.72L24.81 6.72L24.81 7.21L23.31 7.21L23.31 12.60L23.31 12.60Q23.31 13.53 23.07 14.31L23.07 14.31L23.07 14.31Q22.83 15.10 22.33 15.67L22.33 15.67L22.33 15.67Q21.84 16.24 21.10 16.56L21.10 16.56L21.10 16.56Q20.36 16.88 19.38 16.88L19.38 16.88L19.38 16.88Q19.03 16.88 18.71 16.83L18.71 16.83L18.71 16.83Q18.39 16.77 18.14 16.67L18.14 16.67L18.14 16.67Q17.90 16.56 17.75 16.42L17.75 16.42L17.75 16.42Q17.60 16.28 17.60 16.11L17.60 16.11L17.60 16.11Q17.60 15.99 17.64 15.86L17.64 15.86L17.64 15.86Q17.67 15.74 17.74 15.63L17.74 15.63L17.74 15.63Q17.81 15.53 17.91 15.47L17.91 15.47L17.91 15.47Q18.01 15.40 18.14 15.40L18.14 15.40L18.14 15.40Q18.21 15.40 18.27 15.48L18.27 15.48L18.27 15.48Q18.33 15.55 18.39 15.66L18.39 15.66L18.39 15.66Q18.45 15.77 18.53 15.90L18.53 15.90L18.53 15.90Q18.61 16.04 18.73 16.15L18.73 16.15L18.73 16.15Q18.85 16.26 19.03 16.33L19.03 16.33L19.03 16.33Q19.22 16.41 19.48 16.41L19.48 16.41L19.48 16.41Q19.82 16.41 20.09 16.27L20.09 16.27L20.09 16.27Q20.36 16.13 20.55 15.88L20.55 15.88L20.55 15.88Q20.74 15.63 20.87 15.30L20.87 15.30L20.87 15.30Q21 14.96 21.08 14.58L21.08 14.58L21.08 14.58Q21.15 14.20 21.18 13.78L21.18 13.78L21.18 13.78Q21.21 13.36 21.21 12.95L21.21 12.95L21.21 7.21L19.95 7.21L19.95 6.72L21.21 6.72L21.21 5.92L21.21 5.92Q21.21 5.32 21.36 4.87L21.36 4.87L21.36 4.87Q21.51 4.42 21.75 4.11L21.75 4.11L21.75 4.11Q21.99 3.79 22.30 3.60L22.30 3.60L22.30 3.60Q22.61 3.40 22.92 3.28L22.92 3.28L22.92 3.28Q23.24 3.17 23.54 3.12L23.54 3.12L23.54 3.12Q23.84 3.08 24.07 3.08L24.07 3.08L24.07 3.08Q24.55 3.08 24.93 3.15L24.93 3.15L24.93 3.15Q25.31 3.23 25.56 3.35L25.56 3.35L25.56 3.35Q25.81 3.47 25.94 3.62L25.94 3.62L25.94 3.62Q26.07 3.78 26.07 3.94L26.07 3.94L26.07 3.94Q26.07 4.07 26.03 4.19L26.03 4.19L26.03 4.19Q26.00 4.32 25.93 4.43L25.93 4.43L25.93 4.43Q25.86 4.53 25.76 4.60L25.76 4.60L25.76 4.60Q25.66 4.66 25.54 4.66L25.54 4.66L25.54 4.66Q25.46 4.66 25.40 4.58L25.40 4.58L25.40 4.58Q25.34 4.50 25.27 4.38L25.27 4.38L25.27 4.38Q25.20 4.25 25.12 4.11L25.12 4.11L25.12 4.11Q25.04 3.96 24.92 3.84L24.92 3.84L24.92 3.84Q24.80 3.72 24.64 3.64L24.64 3.64L24.64 3.64Q24.47 3.55 24.25 3.55ZM28.70 7.21L27.64 7.21L27.64 12.26L27.64 12.26Q27.64 12.63 27.78 12.77L27.78 12.77L27.78 12.77Q27.92 12.91 28.16 12.91L28.16 12.91L28.16 12.91Q28.34 12.91 28.49 12.80L28.49 12.80L28.49 12.80Q28.63 12.70 28.73 12.57L28.73 12.57L28.73 12.57Q28.85 12.43 28.94 12.24L28.94 12.24L29.16 12.33L29.16 12.33Q29.05 12.55 28.91 12.81L28.91 12.81L28.91 12.81Q28.77 13.07 28.54 13.29L28.54 13.29L28.54 13.29Q28.31 13.51 27.96 13.67L27.96 13.67L27.96 13.67Q27.60 13.82 27.07 13.82L27.07 13.82L27.07 13.82Q26.77 13.82 26.49 13.73L26.49 13.73L26.49 13.73Q26.22 13.64 26.00 13.45L26.00 13.45L26.00 13.45Q25.79 13.25 25.66 12.97L25.66 12.97L25.66 12.97Q25.53 12.68 25.53 12.28L25.53 12.28L25.53 7.21L24.76 7.21L24.76 6.72L24.76 6.72Q24.95 6.72 25.29 6.62L25.29 6.62L25.29 6.62Q25.63 6.52 25.99 6.29L25.99 6.29L25.99 6.29Q26.35 6.06 26.66 5.67L26.66 5.67L26.66 5.67Q26.97 5.28 27.10 4.70L27.10 4.70L27.64 4.70L27.64 6.72L28.76 6.72L28.76 6.72Q29.31 6.72 29.31 6.54L29.31 6.54L29.31 6.54Q29.31 6.47 29.24 6.44L29.24 6.44L29.24 6.44Q29.17 6.42 29.08 6.38L29.08 6.38L29.08 6.38Q29.00 6.34 28.93 6.28L28.93 6.28L28.93 6.28Q28.86 6.21 28.86 6.05L28.86 6.05L28.86 6.05Q28.86 5.86 28.98 5.75L28.98 5.75L28.98 5.75Q29.10 5.64 29.29 5.64L29.29 5.64L29.29 5.64Q29.42 5.64 29.51 5.69L29.51 5.69L29.51 5.69Q29.60 5.74 29.66 5.83L29.66 5.83L29.66 5.83Q29.72 5.91 29.75 6.02L29.75 6.02L29.75 6.02Q29.78 6.13 29.78 6.24L29.78 6.24L29.78 6.24Q29.78 6.69 29.53 6.95L29.53 6.95L29.53 6.95Q29.27 7.21 28.70 7.21L28.70 7.21ZM32.34 7.17L32.34 7.17L32.34 7.17Q32.18 7.17 32.04 7.21L32.04 7.21L32.04 7.21Q31.90 7.25 31.79 7.35L31.79 7.35L31.79 7.35Q31.68 7.44 31.62 7.58L31.62 7.58L31.62 7.58Q31.56 7.72 31.56 7.91L31.56 7.91L31.56 7.91Q31.56 8.18 31.76 8.44L31.76 8.44L31.76 8.44Q31.95 8.70 32.24 8.99L32.24 8.99L32.24 8.99Q32.53 9.27 32.87 9.57L32.87 9.57L32.87 9.57Q33.21 9.88 33.50 10.22L33.50 10.22L33.50 10.22Q33.79 10.55 33.98 10.94L33.98 10.94L33.98 10.94Q34.18 11.32 34.18 11.76L34.18 11.76L34.18 11.76Q34.18 12.25 34.01 12.63L34.01 12.63L34.01 12.63Q33.84 13.02 33.53 13.28L33.53 13.28L33.53 13.28Q33.22 13.55 32.78 13.69L32.78 13.69L32.78 13.69Q32.34 13.83 31.80 13.83L31.80 13.83L31.80 13.83Q31.33 13.83 30.95 13.70L30.95 13.70L30.95 13.70Q30.56 13.56 30.27 13.37L30.27 13.37L30.27 13.37Q29.97 13.17 29.76 12.95L29.76 12.95L29.76 12.95Q29.54 12.74 29.43 12.56L29.43 12.56L29.67 12.39L29.67 12.39Q29.76 12.49 29.89 12.61L29.89 12.61L29.89 12.61Q30.03 12.73 30.20 12.83L30.20 12.83L30.20 12.83Q30.37 12.93 30.56 13.00L30.56 13.00L30.56 13.00Q30.75 13.06 30.95 13.06L30.95 13.06L30.95 13.06Q31.44 13.06 31.75 12.83L31.75 12.83L31.75 12.83Q32.07 12.59 32.07 12.13L32.07 12.13L32.07 12.13Q32.07 11.87 31.90 11.59L31.90 11.59L31.90 11.59Q31.73 11.31 31.47 11.02L31.47 11.02L31.47 11.02Q31.21 10.73 30.91 10.41L30.91 10.41L30.91 10.41Q30.60 10.10 30.34 9.76L30.34 9.76L30.34 9.76Q30.08 9.43 29.91 9.07L29.91 9.07L29.91 9.07Q29.74 8.72 29.74 8.33L29.74 8.33L29.74 8.33Q29.74 7.90 29.92 7.58L29.92 7.58L29.92 7.58Q30.09 7.26 30.38 7.05L30.38 7.05L30.38 7.05Q30.67 6.84 31.05 6.73L31.05 6.73L31.05 6.73Q31.42 6.62 31.81 6.62L31.81 6.62L31.81 6.62Q32.27 6.62 32.65 6.71L32.65 6.71L32.65 6.71Q33.02 6.79 33.29 6.96L33.29 6.96L33.29 6.96Q33.56 7.12 33.71 7.38L33.71 7.38L33.71 7.38Q33.86 7.63 33.86 7.96L33.86 7.96L33.86 7.96Q33.86 8.22 33.69 8.42L33.69 8.42L33.69 8.42Q33.52 8.61 33.21 8.61L33.21 8.61L33.21 8.61Q32.92 8.61 32.76 8.48L32.76 8.48L32.76 8.48Q32.61 8.35 32.61 8.13L32.61 8.13L32.61 8.13Q32.61 7.99 32.68 7.91L32.68 7.91L32.68 7.91Q32.75 7.83 32.84 7.78L32.84 7.78L32.84 7.78Q32.93 7.72 33.00 7.69L33.00 7.69L33.00 7.69Q33.07 7.65 33.07 7.59L33.07 7.59L33.07 7.59Q33.07 7.40 32.87 7.28L32.87 7.28L32.87 7.28Q32.66 7.17 32.34 7.17ZM45.46 11.27L44.79 11.27L42.33 6.37L42.24 8.02L42.24 8.02Q42.20 8.74 42.17 9.44L42.17 9.44L42.17 9.44Q42.14 10.15 42.05 10.79L42.05 10.79L42.05 10.79Q41.97 11.43 41.80 11.98L41.80 11.98L41.80 11.98Q41.62 12.52 41.29 12.92L41.29 12.92L41.29 12.92Q40.96 13.32 40.43 13.55L40.43 13.55L40.43 13.55Q39.90 13.77 39.11 13.77L39.11 13.77L39.11 13.77Q38.76 13.77 38.44 13.72L38.44 13.72L38.44 13.72Q38.12 13.66 37.87 13.56L37.87 13.56L37.87 13.56Q37.63 13.45 37.48 13.31L37.48 13.31L37.48 13.31Q37.33 13.17 37.33 13.01L37.33 13.01L37.33 13.01Q37.33 12.89 37.37 12.76L37.37 12.76L37.37 12.76Q37.40 12.63 37.47 12.53L37.47 12.53L37.47 12.53Q37.54 12.42 37.64 12.36L37.64 12.36L37.64 12.36Q37.73 12.29 37.86 12.29L37.86 12.29L37.86 12.29Q37.93 12.29 37.99 12.37L37.99 12.37L37.99 12.37Q38.05 12.44 38.11 12.55L38.11 12.55L38.11 12.55Q38.17 12.67 38.25 12.80L38.25 12.80L38.25 12.80Q38.33 12.93 38.46 13.04L38.46 13.04L38.46 13.04Q38.58 13.15 38.76 13.23L38.76 13.23L38.76 13.23Q38.94 13.30 39.20 13.30L39.20 13.30L39.20 13.30Q39.73 13.30 40.09 13.12L40.09 13.12L40.09 13.12Q40.45 12.94 40.68 12.60L40.68 12.60L40.68 12.60Q40.91 12.26 41.04 11.77L41.04 11.77L41.04 11.77Q41.16 11.29 41.22 10.67L41.22 10.67L41.22 10.67Q41.25 10.33 41.28 10.01L41.28 10.01L41.28 10.01Q41.30 9.69 41.33 9.38L41.33 9.38L41.33 9.38Q41.36 9.06 41.38 8.74L41.38 8.74L41.38 8.74Q41.41 8.42 41.43 8.05L41.43 8.05L41.43 8.05Q41.47 7.53 41.49 7.05L41.49 7.05L41.49 7.05Q41.52 6.58 41.54 6.17L41.54 6.17L41.54 6.17Q41.56 5.76 41.57 5.43L41.57 5.43L41.57 5.43Q41.58 5.10 41.58 4.86L41.58 4.86L41.58 4.86Q41.47 4.62 41.38 4.47L41.38 4.47L41.38 4.47Q41.29 4.33 41.19 4.25L41.19 4.25L41.19 4.25Q41.10 4.17 40.98 4.14L40.98 4.14L40.98 4.14Q40.87 4.12 40.70 4.12L40.70 4.12L40.70 4.12Q40.56 4.12 40.36 4.17L40.36 4.17L40.36 4.17Q40.16 4.22 39.95 4.31L39.95 4.31L39.95 4.31Q39.73 4.41 39.52 4.55L39.52 4.55L39.52 4.55Q39.30 4.69 39.13 4.87L39.13 4.87L39.13 4.87Q38.96 5.05 38.86 5.27L38.86 5.27L38.86 5.27Q38.75 5.49 38.75 5.74L38.75 5.74L38.75 5.74Q38.75 5.96 38.81 6.09L38.81 6.09L38.81 6.09Q38.87 6.22 38.95 6.29L38.95 6.29L38.95 6.29Q39.03 6.35 39.10 6.37L39.10 6.37L39.10 6.37Q39.18 6.38 39.22 6.38L39.22 6.38L39.22 6.38Q39.39 6.38 39.50 6.33L39.50 6.33L39.50 6.33Q39.61 6.27 39.70 6.20L39.70 6.20L39.70 6.20Q39.79 6.14 39.86 6.08L39.86 6.08L39.86 6.08Q39.94 6.02 40.04 6.02L40.04 6.02L40.04 6.02Q40.13 6.02 40.22 6.06L40.22 6.06L40.22 6.06Q40.31 6.10 40.39 6.18L40.39 6.18L40.39 6.18Q40.47 6.26 40.52 6.40L40.52 6.40L40.52 6.40Q40.58 6.53 40.58 6.72L40.58 6.72L40.58 6.72Q40.58 6.99 40.47 7.19L40.47 7.19L40.47 7.19Q40.37 7.39 40.20 7.52L40.20 7.52L40.20 7.52Q40.03 7.66 39.82 7.72L39.82 7.72L39.82 7.72Q39.60 7.79 39.39 7.79L39.39 7.79L39.39 7.79Q39.06 7.79 38.80 7.67L38.80 7.67L38.80 7.67Q38.53 7.56 38.35 7.36L38.35 7.36L38.35 7.36Q38.17 7.16 38.07 6.90L38.07 6.90L38.07 6.90Q37.97 6.63 37.97 6.33L37.97 6.33L37.97 6.33Q37.97 5.62 38.30 5.09L38.30 5.09L38.30 5.09Q38.63 4.56 39.16 4.20L39.16 4.20L39.16 4.20Q39.70 3.85 40.37 3.67L40.37 3.67L40.37 3.67Q41.04 3.50 41.74 3.50L41.74 3.50L41.74 3.50Q42.30 3.50 42.68 3.61L42.68 3.61L42.68 3.61Q43.05 3.73 43.31 3.91L43.31 3.91L43.31 3.91Q43.56 4.10 43.72 4.35L43.72 4.35L43.72 4.35Q43.89 4.61 44.02 4.89L44.02 4.89L45.83 8.55L45.83 8.55Q46.53 7.16 47.11 6.07L47.11 6.07L47.11 6.07Q47.69 4.97 48.18 4.14L48.18 4.14L48.18 4.14Q48.67 3.30 49.10 2.71L49.10 2.71L49.10 2.71Q49.53 2.13 49.93 1.75L49.93 1.75L49.93 1.75Q50.33 1.38 50.72 1.21L50.72 1.21L50.72 1.21Q51.11 1.04 51.54 1.04L51.54 1.04L51.54 1.04Q51.90 1.04 52.12 1.19L52.12 1.19L52.12 1.19Q52.35 1.35 52.35 1.65L52.35 1.65L52.35 1.65Q52.35 1.93 52.26 2.11L52.26 2.11L52.26 2.11Q52.17 2.28 52.01 2.28L52.01 2.28L52.01 2.28Q51.88 2.28 51.82 2.18L51.82 2.18L51.82 2.18Q51.75 2.08 51.68 1.97L51.68 1.97L51.68 1.97Q51.62 1.85 51.52 1.75L51.52 1.75L51.52 1.75Q51.43 1.65 51.24 1.65L51.24 1.65L51.24 1.65Q51.13 1.65 50.98 1.72L50.98 1.72L50.98 1.72Q50.82 1.78 50.65 1.90L50.65 1.90L50.65 1.90Q50.48 2.02 50.32 2.21L50.32 2.21L50.32 2.21Q50.16 2.39 50.03 2.64L50.03 2.64L50.03 2.64Q49.91 2.88 49.84 3.20L49.84 3.20L49.84 3.20Q49.77 3.51 49.80 3.89L49.80 3.89L49.80 3.89Q49.83 4.32 49.88 4.90L49.88 4.90L49.88 4.90Q49.92 5.48 49.98 6.14L49.98 6.14L49.98 6.14Q50.04 6.79 50.10 7.50L50.10 7.50L50.10 7.50Q50.17 8.20 50.24 8.89L50.24 8.89L50.24 8.89Q50.31 9.57 50.37 10.20L50.37 10.20L50.37 10.20Q50.44 10.83 50.49 11.34L50.49 11.34L50.49 11.34Q50.54 11.85 50.59 12.20L50.59 12.20L50.59 12.20Q50.64 12.55 50.67 12.68L50.67 12.68L50.67 12.68Q50.71 12.88 50.78 13.00L50.78 13.00L50.78 13.00Q50.85 13.12 51.02 13.12L51.02 13.12L51.02 13.12Q51.21 13.12 51.37 13.05L51.37 13.05L51.37 13.05Q51.54 12.99 51.67 12.92L51.67 12.92L51.78 13.17L51.78 13.17Q51.65 13.26 51.46 13.37L51.46 13.37L51.46 13.37Q51.28 13.49 51.03 13.59L51.03 13.59L51.03 13.59Q50.79 13.69 50.50 13.76L50.50 13.76L50.50 13.76Q50.21 13.83 49.88 13.83L49.88 13.83L49.88 13.83Q49.40 13.83 49.13 13.71L49.13 13.71L49.13 13.71Q48.86 13.59 48.71 13.42L48.71 13.42L48.71 13.42Q48.56 13.24 48.51 13.05L48.51 13.05L48.51 13.05Q48.46 12.85 48.43 12.69L48.43 12.69L48.43 12.69Q48.37 12.35 48.30 11.85L48.30 11.85L48.30 11.85Q48.23 11.36 48.17 10.80L48.17 10.80L48.17 10.80Q48.10 10.23 48.04 9.64L48.04 9.64L48.04 9.64Q47.98 9.04 47.93 8.47L47.93 8.47L47.93 8.47Q47.88 7.90 47.84 7.39L47.84 7.39L47.84 7.39Q47.80 6.88 47.77 6.51L47.77 6.51L47.77 6.51Q47.56 6.84 47.39 7.15L47.39 7.15L47.39 7.15Q47.22 7.46 47.05 7.79L47.05 7.79L47.05 7.79Q46.89 8.11 46.72 8.47L46.72 8.47L46.72 8.47Q46.55 8.83 46.36 9.24L46.36 9.24L46.36 9.24Q46.17 9.66 45.95 10.16L45.95 10.16L45.95 10.16Q45.73 10.66 45.46 11.27L45.46 11.27ZM55.72 11.85L55.72 10.18L55.72 10.18Q55.72 10.01 55.61 9.92L55.61 9.92L55.61 9.92Q55.50 9.83 55.33 9.83L55.33 9.83L55.33 9.83Q55.09 9.83 54.88 9.94L54.88 9.94L54.88 9.94Q54.66 10.05 54.50 10.26L54.50 10.26L54.50 10.26Q54.33 10.47 54.24 10.78L54.24 10.78L54.24 10.78Q54.14 11.09 54.14 11.50L54.14 11.50L54.14 11.50Q54.14 11.90 54.20 12.16L54.20 12.16L54.20 12.16Q54.26 12.42 54.36 12.57L54.36 12.57L54.36 12.57Q54.46 12.73 54.58 12.79L54.58 12.79L54.58 12.79Q54.71 12.85 54.86 12.85L54.86 12.85L54.86 12.85Q55.04 12.85 55.19 12.76L55.19 12.76L55.19 12.76Q55.35 12.67 55.47 12.52L55.47 12.52L55.47 12.52Q55.58 12.38 55.65 12.20L55.65 12.20L55.65 12.20Q55.72 12.02 55.72 11.85L55.72 11.85ZM54.63 7.18L54.63 7.18L54.63 7.18Q54.40 7.18 54.20 7.24L54.20 7.24L54.20 7.24Q54.00 7.29 53.86 7.38L53.86 7.38L53.86 7.38Q53.72 7.46 53.63 7.56L53.63 7.56L53.63 7.56Q53.55 7.66 53.55 7.75L53.55 7.75L53.55 7.75Q53.55 7.85 53.66 7.89L53.66 7.89L53.66 7.89Q53.76 7.94 53.89 7.99L53.89 7.99L53.89 7.99Q54.02 8.05 54.13 8.16L54.13 8.16L54.13 8.16Q54.24 8.26 54.24 8.48L54.24 8.48L54.24 8.48Q54.24 8.63 54.18 8.75L54.18 8.75L54.18 8.75Q54.12 8.87 54.02 8.96L54.02 8.96L54.02 8.96Q53.92 9.05 53.79 9.10L53.79 9.10L53.79 9.10Q53.66 9.15 53.51 9.15L53.51 9.15L53.51 9.15Q53.13 9.15 52.89 8.89L52.89 8.89L52.89 8.89Q52.66 8.63 52.66 8.20L52.66 8.20L52.66 8.20Q52.66 7.79 52.88 7.49L52.88 7.49L52.88 7.49Q53.09 7.19 53.45 7L53.45 7L53.45 7Q53.80 6.81 54.24 6.72L54.24 6.72L54.24 6.72Q54.69 6.62 55.13 6.62L55.13 6.62L55.13 6.62Q55.67 6.62 56.15 6.74L56.15 6.74L56.15 6.74Q56.64 6.86 57.01 7.11L57.01 7.11L57.01 7.11Q57.38 7.36 57.60 7.75L57.60 7.75L57.60 7.75Q57.83 8.14 57.83 8.70L57.83 8.70L57.83 12.56L57.83 12.56Q57.83 12.62 57.83 12.69L57.83 12.69L57.83 12.69Q57.84 12.77 57.87 12.83L57.87 12.83L57.87 12.83Q57.89 12.89 57.95 12.93L57.95 12.93L57.95 12.93Q58.00 12.97 58.11 12.97L58.11 12.97L58.11 12.97Q58.23 12.97 58.33 12.88L58.33 12.88L58.33 12.88Q58.44 12.79 58.52 12.69L58.52 12.69L58.69 12.84L58.69 12.84Q58.59 12.98 58.45 13.15L58.45 13.15L58.45 13.15Q58.30 13.32 58.10 13.47L58.10 13.47L58.10 13.47Q57.89 13.62 57.62 13.73L57.62 13.73L57.62 13.73Q57.35 13.83 57.00 13.83L57.00 13.83L57.00 13.83Q56.57 13.83 56.23 13.57L56.23 13.57L56.23 13.57Q55.90 13.32 55.79 12.78L55.79 12.78L55.79 12.78Q55.58 13.08 55.34 13.28L55.34 13.28L55.34 13.28Q55.10 13.47 54.86 13.60L54.86 13.60L54.86 13.60Q54.61 13.72 54.36 13.77L54.36 13.77L54.36 13.77Q54.11 13.83 53.86 13.83L53.86 13.83L53.86 13.83Q53.53 13.83 53.22 13.73L53.22 13.73L53.22 13.73Q52.92 13.62 52.67 13.40L52.67 13.40L52.67 13.40Q52.43 13.18 52.28 12.82L52.28 12.82L52.28 12.82Q52.14 12.47 52.14 11.96L52.14 11.96L52.14 11.96Q52.14 11.33 52.38 10.94L52.38 10.94L52.38 10.94Q52.63 10.54 53.03 10.27L53.03 10.27L53.03 10.27Q53.43 10.00 53.94 9.81L53.94 9.81L53.94 9.81Q54.45 9.62 54.98 9.41L54.98 9.41L54.98 9.41Q55.38 9.25 55.56 8.94L55.56 8.94L55.56 8.94Q55.74 8.63 55.74 8.30L55.74 8.30L55.74 8.30Q55.74 7.79 55.44 7.49L55.44 7.49L55.44 7.49Q55.15 7.18 54.63 7.18ZM61.73 4.21L61.73 8.48L61.73 8.48Q61.97 8.16 62.24 7.83L62.24 7.83L62.24 7.83Q62.51 7.50 62.83 7.23L62.83 7.23L62.83 7.23Q63.14 6.97 63.51 6.79L63.51 6.79L63.51 6.79Q63.88 6.62 64.32 6.62L64.32 6.62L64.32 6.62Q64.71 6.62 64.97 6.78L64.97 6.78L64.97 6.78Q65.23 6.93 65.39 7.15L65.39 7.15L65.39 7.15Q65.55 7.36 65.61 7.59L65.61 7.59L65.61 7.59Q65.68 7.83 65.68 7.99L65.68 7.99L65.68 7.99Q65.68 8.29 65.60 8.62L65.60 8.62L65.60 8.62Q65.52 8.94 65.33 9.26L65.33 9.26L65.33 9.26Q65.15 9.58 64.83 9.87L64.83 9.87L64.83 9.87Q64.52 10.17 64.04 10.42L64.04 10.42L64.04 10.42Q64.68 11.78 65.29 12.76L65.29 12.76L65.29 12.76Q65.90 13.74 66.46 14.37L66.46 14.37L66.46 14.37Q67.03 15.00 67.55 15.31L67.55 15.31L67.55 15.31Q68.07 15.61 68.54 15.61L68.54 15.61L68.54 15.61Q68.62 15.61 68.70 15.59L68.70 15.59L68.70 15.59Q68.78 15.57 68.85 15.54L68.85 15.54L68.85 15.54Q68.93 15.51 69.01 15.47L69.01 15.47L69.14 15.71L69.14 15.71Q68.95 15.81 68.76 15.90L68.76 15.90L68.76 15.90Q68.57 16.00 68.33 16.06L68.33 16.06L68.33 16.06Q68.08 16.13 67.76 16.17L67.76 16.17L67.76 16.17Q67.44 16.21 66.99 16.21L66.99 16.21L66.99 16.21Q66.59 16.21 66.20 16.12L66.20 16.12L66.20 16.12Q65.80 16.02 65.41 15.78L65.41 15.78L65.41 15.78Q65.01 15.53 64.60 15.12L64.60 15.12L64.60 15.12Q64.20 14.71 63.77 14.08L63.77 14.08L63.77 14.08Q63.34 13.45 62.89 12.58L62.89 12.58L62.89 12.58Q62.44 11.72 61.95 10.55L61.95 10.55L61.95 10.55Q62.61 10.07 62.99 9.66L62.99 9.66L62.99 9.66Q63.36 9.24 63.55 8.91L63.55 8.91L63.55 8.91Q63.75 8.57 63.79 8.31L63.79 8.31L63.79 8.31Q63.84 8.05 63.84 7.87L63.84 7.87L63.84 7.87Q63.84 7.84 63.83 7.78L63.83 7.78L63.83 7.78Q63.83 7.71 63.79 7.65L63.79 7.65L63.79 7.65Q63.75 7.59 63.68 7.54L63.68 7.54L63.68 7.54Q63.61 7.49 63.48 7.49L63.48 7.49L63.48 7.49Q63.23 7.49 62.97 7.71L62.97 7.71L62.97 7.71Q62.71 7.92 62.47 8.24L62.47 8.24L62.47 8.24Q62.23 8.56 62.04 8.92L62.04 8.92L62.04 8.92Q61.85 9.29 61.73 9.59L61.73 9.59L61.73 13.12L61.73 13.12Q61.73 13.21 61.70 13.33L61.70 13.33L61.70 13.33Q61.67 13.45 61.55 13.56L61.55 13.56L61.55 13.56Q61.44 13.67 61.23 13.75L61.23 13.75L61.23 13.75Q61.01 13.83 60.65 13.83L60.65 13.83L60.65 13.83Q60.29 13.83 60.08 13.74L60.08 13.74L60.08 13.74Q59.88 13.66 59.78 13.54L59.78 13.54L59.78 13.54Q59.68 13.43 59.65 13.30L59.65 13.30L59.65 13.30Q59.63 13.18 59.63 13.10L59.63 13.10L59.63 4.29L59.63 4.29Q59.63 4.09 59.54 3.94L59.54 3.94L59.54 3.94Q59.45 3.79 59.23 3.79L59.23 3.79L59.23 3.79Q59.11 3.79 59.02 3.83L59.02 3.83L59.02 3.83Q58.94 3.87 58.84 3.94L58.84 3.94L58.71 3.78L58.71 3.78Q58.86 3.65 59.06 3.52L59.06 3.52L59.06 3.52Q59.25 3.40 59.48 3.30L59.48 3.30L59.48 3.30Q59.71 3.21 59.96 3.14L59.96 3.14L59.96 3.14Q60.22 3.08 60.51 3.08L60.51 3.08L60.51 3.08Q60.96 3.08 61.20 3.20L61.20 3.20L61.20 3.20Q61.45 3.32 61.56 3.50L61.56 3.50L61.56 3.50Q61.68 3.67 61.70 3.87L61.70 3.87L61.70 3.87Q61.73 4.06 61.73 4.21L61.73 4.21ZM71.37 8.99L68.67 10.58L68.67 10.58Q68.67 10.80 68.74 11.06L68.74 11.06L68.74 11.06Q68.80 11.31 68.93 11.57L68.93 11.57L68.93 11.57Q69.05 11.83 69.23 12.07L69.23 12.07L69.23 12.07Q69.41 12.30 69.65 12.49L69.65 12.49L69.65 12.49Q69.88 12.67 70.17 12.78L70.17 12.78L70.17 12.78Q70.46 12.89 70.80 12.89L70.80 12.89L70.80 12.89Q71.04 12.89 71.24 12.84L71.24 12.84L71.24 12.84Q71.45 12.78 71.63 12.69L71.63 12.69L71.63 12.69Q71.80 12.59 71.97 12.47L71.97 12.47L71.97 12.47Q72.13 12.34 72.30 12.20L72.30 12.20L72.47 12.36L72.47 12.36Q72.31 12.57 72.06 12.82L72.06 12.82L72.06 12.82Q71.82 13.08 71.47 13.30L71.47 13.30L71.47 13.30Q71.12 13.52 70.66 13.67L70.66 13.67L70.66 13.67Q70.19 13.82 69.60 13.82L69.60 13.82L69.60 13.82Q69.00 13.82 68.44 13.60L68.44 13.60L68.44 13.60Q67.87 13.38 67.44 12.95L67.44 12.95L67.44 12.95Q67.00 12.52 66.74 11.88L66.74 11.88L66.74 11.88Q66.47 11.24 66.47 10.38L66.47 10.38L66.47 10.38Q66.47 9.75 66.63 9.24L66.63 9.24L66.63 9.24Q66.79 8.72 67.06 8.30L67.06 8.30L67.06 8.30Q67.33 7.88 67.69 7.57L67.69 7.57L67.69 7.57Q68.04 7.25 68.44 7.04L68.44 7.04L68.44 7.04Q68.84 6.84 69.25 6.73L69.25 6.73L69.25 6.73Q69.67 6.62 70.05 6.62L70.05 6.62L70.05 6.62Q70.55 6.62 70.93 6.73L70.93 6.73L70.93 6.73Q71.31 6.84 71.56 7.03L71.56 7.03L71.56 7.03Q71.80 7.21 71.93 7.45L71.93 7.45L71.93 7.45Q72.05 7.70 72.05 7.96L72.05 7.96L72.05 7.96Q72.05 8.29 71.87 8.54L71.87 8.54L71.87 8.54Q71.68 8.80 71.37 8.99L71.37 8.99ZM68.61 10.02L70.05 9.19L70.05 9.19Q70.14 9.14 70.19 9.09L70.19 9.09L70.19 9.09Q70.25 9.04 70.29 8.97L70.29 8.97L70.29 8.97Q70.32 8.89 70.34 8.79L70.34 8.79L70.34 8.79Q70.36 8.68 70.36 8.52L70.36 8.52L70.36 8.52Q70.36 8.35 70.32 8.15L70.32 8.15L70.32 8.15Q70.28 7.94 70.19 7.75L70.19 7.75L70.19 7.75Q70.10 7.57 69.97 7.44L69.97 7.44L69.97 7.44Q69.83 7.32 69.64 7.32L69.64 7.32L69.64 7.32Q69.39 7.32 69.22 7.47L69.22 7.47L69.22 7.47Q69.04 7.62 68.93 7.85L68.93 7.85L68.93 7.85Q68.82 8.08 68.75 8.38L68.75 8.38L68.75 8.38Q68.69 8.67 68.65 8.98L68.65 8.98L68.65 8.98Q68.62 9.28 68.61 9.55L68.61 9.55L68.61 9.55Q68.61 9.83 68.61 10.02L68.61 10.02ZM75.57 8.07L75.57 8.07L75.57 8.07Q75.83 7.67 76.13 7.35L76.13 7.35L76.13 7.35Q76.25 7.21 76.39 7.08L76.39 7.08L76.39 7.08Q76.54 6.95 76.69 6.85L76.69 6.85L76.69 6.85Q76.84 6.75 77.01 6.69L77.01 6.69L77.01 6.69Q77.17 6.62 77.33 6.62L77.33 6.62L77.33 6.62Q77.68 6.62 77.88 6.83L77.88 6.83L77.88 6.83Q78.08 7.04 78.08 7.42L78.08 7.42L78.08 7.42Q78.08 7.65 78.04 7.86L78.04 7.86L78.04 7.86Q78.00 8.08 77.90 8.39L77.90 8.39L77.70 8.39L77.70 8.39Q77.66 8.18 77.51 8.04L77.51 8.04L77.51 8.04Q77.36 7.90 77.08 7.90L77.08 7.90L77.08 7.90Q76.86 7.90 76.66 7.97L76.66 7.97L76.66 7.97Q76.45 8.05 76.26 8.17L76.26 8.17L76.26 8.17Q76.06 8.29 75.89 8.42L75.89 8.42L75.89 8.42Q75.71 8.56 75.57 8.68L75.57 8.68L75.57 13.12L75.57 13.12Q75.57 13.21 75.54 13.33L75.54 13.33L75.54 13.33Q75.52 13.45 75.41 13.56L75.41 13.56L75.41 13.56Q75.30 13.67 75.10 13.75L75.10 13.75L75.10 13.75Q74.89 13.83 74.53 13.83L74.53 13.83L74.53 13.83Q74.16 13.83 73.95 13.74L73.95 13.74L73.95 13.74Q73.75 13.66 73.64 13.54L73.64 13.54L73.64 13.54Q73.53 13.43 73.50 13.30L73.50 13.30L73.50 13.30Q73.47 13.18 73.47 13.10L73.47 13.10L73.47 7.83L73.47 7.83Q73.47 7.63 73.38 7.48L73.38 7.48L73.38 7.48Q73.29 7.33 73.07 7.33L73.07 7.33L73.07 7.33Q72.95 7.33 72.87 7.38L72.87 7.38L72.87 7.38Q72.79 7.42 72.69 7.49L72.69 7.49L72.55 7.32L72.55 7.32Q72.71 7.19 72.90 7.06L72.90 7.06L72.90 7.06Q73.10 6.94 73.32 6.84L73.32 6.84L73.32 6.84Q73.55 6.75 73.81 6.69L73.81 6.69L73.81 6.69Q74.07 6.62 74.35 6.62L74.35 6.62L74.35 6.62Q74.65 6.62 74.86 6.70L74.86 6.70L74.86 6.70Q75.07 6.78 75.20 6.91L75.20 6.91L75.20 6.91Q75.33 7.03 75.41 7.19L75.41 7.19L75.41 7.19Q75.48 7.35 75.52 7.51L75.52 7.51L75.52 7.51Q75.56 7.67 75.56 7.82L75.56 7.82L75.56 7.82Q75.57 7.96 75.57 8.07Z"></path></g><!----><g data-v-423bf9ae="" id="a7de3f19-479d-4e21-8252-0652fede908e" transform="matrix(3.2123583077039544,0,0,3.2123583077039544,-6.400763224250468,-5.390188868100331)" stroke="none" fill="#FED700"><path d="M23.15 10.094c.484 0 1.04-.276 1.557-.625a22.858 22.858 0 0 0-.625-.781c-.39.257-.722.406-.933.406-.077 0-.139-.02-.18-.062-.277-.276.395-1.396 1.5-2.5.936-.937 1.883-1.562 2.318-1.562.078 0 .14.02.181.062.199.198-.098.835-.688 1.586.218.257.433.525.646.798.908-1.086 1.539-2.302.75-3.091a1.243 1.243 0 0 0-.89-.355c-1.056 0-2.467 1.297-3.025 1.855-1.235 1.235-2.498 2.916-1.5 3.914.229.229.544.355.888.355zM19.228 2.919c.032.02 1.1.733 2.514 1.97.164-.192.336-.38.52-.564.06-.061.124-.115.186-.173-1.436-1.253-2.541-1.984-2.676-2.07a.5.5 0 1 0-.544.837z"></path><path d="M10.82 20.357L20.956 9.154c-.033-1.218.68-2.791 2.012-4.122C24.27 3.73 25.813 3 27.018 3c.584 0 1.09.171 1.45.532.973.973.565 3-.867 4.79.197.278.391.56.579.851.787-.922 1.37-1.941 1.642-2.939.382-1.4.152-2.61-.647-3.41C28.635 2.286 27.89 2 27.018 2c-1.523 0-3.301.869-4.757 2.325-1.352 1.352-2.188 2.978-2.294 4.432L10.08 19.683c.246.23.491.462.739.674zM9.466 23.15L3 29l5.8-6.41a24.526 24.526 0 0 1-.744-.67l-5.798 6.41a1 1 0 0 0 1.413 1.412l6.596-5.969a22.854 22.854 0 0 1-.801-.623z"></path><path d="M22.847 11.044l-11.11 10.05c.278.212.556.405.835.594l10.672-9.655c.842-.063 1.745-.378 2.617-.89a19.317 19.317 0 0 0-.54-.84c-.835.483-1.672.742-2.392.742l-.082-.001z"></path><path d="M24.69 6.32c-.074.07-.148.138-.222.212-.178.178-.34.355-.493.53C26.464 9.758 29 13.582 29 18c0 3.208-1.87 5.774-5 6.863-4.462 1.554-11.48-.064-17.108-7.174a.5.5 0 0 0-.784.622c4.568 5.77 10.06 8.087 14.535 8.087 1.336 0 2.582-.207 3.685-.59C27.88 24.572 30 21.653 30 18c0-4.799-2.689-8.859-5.31-11.68z"></path></g><!----></svg>